<mxfile host="app.diagrams.net" agent="Mozilla/5.0 (Windows NT 10.0; Win64; x64) AppleWebKit/537.36 (KHTML, like Gecko) Chrome/135.0.0.0 Safari/537.36 Edg/135.0.0.0" version="26.2.14">
  <diagram name="Page-1" id="5d7acffa-a066-3a61-03fe-96351882024d">
    <mxGraphModel dx="1612" dy="840" grid="1" gridSize="10" guides="1" tooltips="1" connect="1" arrows="1" fold="1" page="0" pageScale="1" pageWidth="1100" pageHeight="850" background="#ffffff" math="0" shadow="0">
      <root>
        <mxCell id="0" />
        <mxCell id="1" parent="0" />
        <mxCell id="-xYoTEpzR54N449aDbvq-133" style="edgeStyle=orthogonalEdgeStyle;rounded=0;orthogonalLoop=1;jettySize=auto;html=1;" parent="1" source="rQ-bKCQHfkk-t5cyrlft-1" target="-xYoTEpzR54N449aDbvq-129" edge="1">
          <mxGeometry relative="1" as="geometry">
            <Array as="points">
              <mxPoint x="1540" y="160" />
            </Array>
          </mxGeometry>
        </mxCell>
        <mxCell id="-xYoTEpzR54N449aDbvq-138" style="edgeStyle=orthogonalEdgeStyle;rounded=0;orthogonalLoop=1;jettySize=auto;html=1;" parent="1" source="rQ-bKCQHfkk-t5cyrlft-1" target="-xYoTEpzR54N449aDbvq-134" edge="1">
          <mxGeometry relative="1" as="geometry">
            <Array as="points">
              <mxPoint x="1540" y="-20" />
            </Array>
          </mxGeometry>
        </mxCell>
        <mxCell id="-xYoTEpzR54N449aDbvq-148" style="edgeStyle=orthogonalEdgeStyle;rounded=0;orthogonalLoop=1;jettySize=auto;html=1;" parent="1" source="rQ-bKCQHfkk-t5cyrlft-1" target="rQ-bKCQHfkk-t5cyrlft-5" edge="1">
          <mxGeometry relative="1" as="geometry" />
        </mxCell>
        <mxCell id="rQ-bKCQHfkk-t5cyrlft-1" value="学生用户" style="rounded=0;whiteSpace=wrap;html=1;" parent="1" vertex="1">
          <mxGeometry x="1480" y="293.5" width="120" height="60" as="geometry" />
        </mxCell>
        <mxCell id="-xYoTEpzR54N449aDbvq-126" style="edgeStyle=orthogonalEdgeStyle;rounded=0;orthogonalLoop=1;jettySize=auto;html=1;" parent="1" source="rQ-bKCQHfkk-t5cyrlft-3" target="rQ-bKCQHfkk-t5cyrlft-30" edge="1">
          <mxGeometry relative="1" as="geometry" />
        </mxCell>
        <mxCell id="rQ-bKCQHfkk-t5cyrlft-3" value="管理员" style="rounded=0;whiteSpace=wrap;html=1;" parent="1" vertex="1">
          <mxGeometry x="1480" y="551.5" width="120" height="60" as="geometry" />
        </mxCell>
        <mxCell id="-xYoTEpzR54N449aDbvq-171" style="edgeStyle=orthogonalEdgeStyle;rounded=0;orthogonalLoop=1;jettySize=auto;html=1;" parent="1" source="rQ-bKCQHfkk-t5cyrlft-4" target="rQ-bKCQHfkk-t5cyrlft-5" edge="1">
          <mxGeometry relative="1" as="geometry" />
        </mxCell>
        <mxCell id="rQ-bKCQHfkk-t5cyrlft-4" value="教师" style="rounded=0;whiteSpace=wrap;html=1;" parent="1" vertex="1">
          <mxGeometry x="1480" y="405" width="120" height="60" as="geometry" />
        </mxCell>
        <mxCell id="-xYoTEpzR54N449aDbvq-157" style="edgeStyle=orthogonalEdgeStyle;rounded=0;orthogonalLoop=1;jettySize=auto;html=1;" parent="1" source="rQ-bKCQHfkk-t5cyrlft-5" target="-xYoTEpzR54N449aDbvq-152" edge="1">
          <mxGeometry relative="1" as="geometry">
            <Array as="points">
              <mxPoint x="1860" y="230" />
            </Array>
          </mxGeometry>
        </mxCell>
        <mxCell id="-xYoTEpzR54N449aDbvq-184" style="edgeStyle=orthogonalEdgeStyle;rounded=0;orthogonalLoop=1;jettySize=auto;html=1;" parent="1" source="rQ-bKCQHfkk-t5cyrlft-5" target="-xYoTEpzR54N449aDbvq-179" edge="1">
          <mxGeometry relative="1" as="geometry">
            <Array as="points">
              <mxPoint x="1910" y="515" />
            </Array>
          </mxGeometry>
        </mxCell>
        <mxCell id="rQ-bKCQHfkk-t5cyrlft-5" value="课程管理" style="swimlane;html=1;fontStyle=0;childLayout=stackLayout;horizontal=1;startSize=26;fillColor=#e0e0e0;horizontalStack=0;resizeParent=1;resizeLast=0;collapsible=1;marginBottom=0;swimlaneFillColor=#ffffff;align=center;rounded=1;shadow=0;comic=0;labelBackgroundColor=none;strokeWidth=1;fontFamily=Verdana;fontSize=12" parent="1" vertex="1">
          <mxGeometry x="1780" y="258.5" width="160" height="130" as="geometry" />
        </mxCell>
        <mxCell id="rQ-bKCQHfkk-t5cyrlft-6" value="购买课程" style="text;html=1;strokeColor=none;fillColor=none;spacingLeft=4;spacingRight=4;whiteSpace=wrap;overflow=hidden;rotatable=0;points=[[0,0.5],[1,0.5]];portConstraint=eastwest;" parent="rQ-bKCQHfkk-t5cyrlft-5" vertex="1">
          <mxGeometry y="26" width="160" height="26" as="geometry" />
        </mxCell>
        <mxCell id="rQ-bKCQHfkk-t5cyrlft-7" value="查看课程" style="text;html=1;strokeColor=none;fillColor=none;spacingLeft=4;spacingRight=4;whiteSpace=wrap;overflow=hidden;rotatable=0;points=[[0,0.5],[1,0.5]];portConstraint=eastwest;" parent="rQ-bKCQHfkk-t5cyrlft-5" vertex="1">
          <mxGeometry y="52" width="160" height="26" as="geometry" />
        </mxCell>
        <mxCell id="-xYoTEpzR54N449aDbvq-150" value="申请课程" style="text;html=1;strokeColor=none;fillColor=none;spacingLeft=4;spacingRight=4;whiteSpace=wrap;overflow=hidden;rotatable=0;points=[[0,0.5],[1,0.5]];portConstraint=eastwest;" parent="rQ-bKCQHfkk-t5cyrlft-5" vertex="1">
          <mxGeometry y="78" width="160" height="26" as="geometry" />
        </mxCell>
        <mxCell id="-xYoTEpzR54N449aDbvq-151" value="编辑课程" style="text;html=1;strokeColor=none;fillColor=none;spacingLeft=4;spacingRight=4;whiteSpace=wrap;overflow=hidden;rotatable=0;points=[[0,0.5],[1,0.5]];portConstraint=eastwest;" parent="rQ-bKCQHfkk-t5cyrlft-5" vertex="1">
          <mxGeometry y="104" width="160" height="26" as="geometry" />
        </mxCell>
        <mxCell id="-xYoTEpzR54N449aDbvq-147" style="edgeStyle=orthogonalEdgeStyle;rounded=0;orthogonalLoop=1;jettySize=auto;html=1;" parent="1" source="rQ-bKCQHfkk-t5cyrlft-14" target="rQ-bKCQHfkk-t5cyrlft-5" edge="1">
          <mxGeometry relative="1" as="geometry" />
        </mxCell>
        <mxCell id="rQ-bKCQHfkk-t5cyrlft-14" value="课程信息" style="html=1;rounded=0;shadow=0;comic=0;labelBackgroundColor=none;strokeWidth=2;fontFamily=Verdana;fontSize=12;align=center;shape=mxgraph.ios7ui.horLines;" parent="1" vertex="1">
          <mxGeometry x="2030" y="350" width="135" height="50" as="geometry" />
        </mxCell>
        <mxCell id="-xYoTEpzR54N449aDbvq-125" style="edgeStyle=orthogonalEdgeStyle;rounded=0;orthogonalLoop=1;jettySize=auto;html=1;" parent="1" source="rQ-bKCQHfkk-t5cyrlft-30" target="-xYoTEpzR54N449aDbvq-123" edge="1">
          <mxGeometry relative="1" as="geometry" />
        </mxCell>
        <mxCell id="rQ-bKCQHfkk-t5cyrlft-30" value="查看可视化信息" style="swimlane;html=1;fontStyle=0;childLayout=stackLayout;horizontal=1;startSize=26;fillColor=#e0e0e0;horizontalStack=0;resizeParent=1;resizeLast=0;collapsible=1;marginBottom=0;swimlaneFillColor=#ffffff;align=center;rounded=1;shadow=0;comic=0;labelBackgroundColor=none;strokeWidth=1;fontFamily=Verdana;fontSize=12" parent="1" vertex="1">
          <mxGeometry x="1670" y="521.5" width="160" height="120" as="geometry" />
        </mxCell>
        <mxCell id="rQ-bKCQHfkk-t5cyrlft-31" value="获取信息" style="text;html=1;strokeColor=none;fillColor=none;spacingLeft=4;spacingRight=4;whiteSpace=wrap;overflow=hidden;rotatable=0;points=[[0,0.5],[1,0.5]];portConstraint=eastwest;" parent="rQ-bKCQHfkk-t5cyrlft-30" vertex="1">
          <mxGeometry y="26" width="160" height="24" as="geometry" />
        </mxCell>
        <mxCell id="-xYoTEpzR54N449aDbvq-51" style="edgeStyle=orthogonalEdgeStyle;rounded=0;orthogonalLoop=1;jettySize=auto;html=1;" parent="1" source="-xYoTEpzR54N449aDbvq-1" target="-xYoTEpzR54N449aDbvq-44" edge="1">
          <mxGeometry relative="1" as="geometry" />
        </mxCell>
        <mxCell id="-xYoTEpzR54N449aDbvq-52" style="edgeStyle=orthogonalEdgeStyle;rounded=0;orthogonalLoop=1;jettySize=auto;html=1;" parent="1" source="-xYoTEpzR54N449aDbvq-1" target="-xYoTEpzR54N449aDbvq-40" edge="1">
          <mxGeometry relative="1" as="geometry" />
        </mxCell>
        <mxCell id="-xYoTEpzR54N449aDbvq-53" style="edgeStyle=orthogonalEdgeStyle;rounded=0;orthogonalLoop=1;jettySize=auto;html=1;" parent="1" source="-xYoTEpzR54N449aDbvq-1" target="-xYoTEpzR54N449aDbvq-36" edge="1">
          <mxGeometry relative="1" as="geometry">
            <Array as="points">
              <mxPoint x="-100" y="290" />
            </Array>
          </mxGeometry>
        </mxCell>
        <mxCell id="-xYoTEpzR54N449aDbvq-54" style="edgeStyle=orthogonalEdgeStyle;rounded=0;orthogonalLoop=1;jettySize=auto;html=1;" parent="1" source="-xYoTEpzR54N449aDbvq-1" target="-xYoTEpzR54N449aDbvq-4" edge="1">
          <mxGeometry relative="1" as="geometry">
            <Array as="points">
              <mxPoint x="140" y="290" />
            </Array>
          </mxGeometry>
        </mxCell>
        <mxCell id="-xYoTEpzR54N449aDbvq-55" style="edgeStyle=orthogonalEdgeStyle;rounded=0;orthogonalLoop=1;jettySize=auto;html=1;" parent="1" source="-xYoTEpzR54N449aDbvq-1" target="-xYoTEpzR54N449aDbvq-17" edge="1">
          <mxGeometry relative="1" as="geometry" />
        </mxCell>
        <mxCell id="-xYoTEpzR54N449aDbvq-56" style="edgeStyle=orthogonalEdgeStyle;rounded=0;orthogonalLoop=1;jettySize=auto;html=1;" parent="1" source="-xYoTEpzR54N449aDbvq-1" target="-xYoTEpzR54N449aDbvq-26" edge="1">
          <mxGeometry relative="1" as="geometry" />
        </mxCell>
        <mxCell id="-xYoTEpzR54N449aDbvq-1" value="在线教育平台&lt;div&gt;模块分析&lt;/div&gt;" style="rounded=0;whiteSpace=wrap;html=1;" parent="1" vertex="1">
          <mxGeometry x="-60" y="260" width="120" height="60" as="geometry" />
        </mxCell>
        <mxCell id="-xYoTEpzR54N449aDbvq-91" style="edgeStyle=orthogonalEdgeStyle;rounded=0;orthogonalLoop=1;jettySize=auto;html=1;" parent="1" source="-xYoTEpzR54N449aDbvq-4" target="-xYoTEpzR54N449aDbvq-72" edge="1">
          <mxGeometry relative="1" as="geometry" />
        </mxCell>
        <mxCell id="-xYoTEpzR54N449aDbvq-4" value="用户体系模块" style="swimlane;whiteSpace=wrap;html=1;startSize=30;" parent="1" vertex="1">
          <mxGeometry x="40" y="400.5" width="200" height="184.5" as="geometry" />
        </mxCell>
        <mxCell id="-xYoTEpzR54N449aDbvq-13" value="个人信息维护系统" style="whiteSpace=wrap;html=1;" parent="-xYoTEpzR54N449aDbvq-4" vertex="1">
          <mxGeometry y="60" width="200" height="31" as="geometry" />
        </mxCell>
        <mxCell id="-xYoTEpzR54N449aDbvq-14" value="用户验证系统" style="whiteSpace=wrap;html=1;" parent="-xYoTEpzR54N449aDbvq-4" vertex="1">
          <mxGeometry y="29" width="200" height="31" as="geometry" />
        </mxCell>
        <mxCell id="-xYoTEpzR54N449aDbvq-15" value="手机邮箱系统" style="whiteSpace=wrap;html=1;" parent="-xYoTEpzR54N449aDbvq-4" vertex="1">
          <mxGeometry y="91" width="200" height="31" as="geometry" />
        </mxCell>
        <mxCell id="-xYoTEpzR54N449aDbvq-16" value="第三方系统(微信QQ)" style="whiteSpace=wrap;html=1;" parent="-xYoTEpzR54N449aDbvq-4" vertex="1">
          <mxGeometry y="122" width="200" height="31" as="geometry" />
        </mxCell>
        <mxCell id="-xYoTEpzR54N449aDbvq-25" value="权限系统" style="whiteSpace=wrap;html=1;" parent="-xYoTEpzR54N449aDbvq-4" vertex="1">
          <mxGeometry y="153" width="200" height="31" as="geometry" />
        </mxCell>
        <mxCell id="-xYoTEpzR54N449aDbvq-93" style="edgeStyle=orthogonalEdgeStyle;rounded=0;orthogonalLoop=1;jettySize=auto;html=1;" parent="1" source="-xYoTEpzR54N449aDbvq-17" target="-xYoTEpzR54N449aDbvq-78" edge="1">
          <mxGeometry relative="1" as="geometry" />
        </mxCell>
        <mxCell id="-xYoTEpzR54N449aDbvq-17" value="课程体系模块" style="swimlane;whiteSpace=wrap;html=1;startSize=30;" parent="1" vertex="1">
          <mxGeometry x="280" y="400.5" width="200" height="214.5" as="geometry" />
        </mxCell>
        <mxCell id="-xYoTEpzR54N449aDbvq-18" value="附件系统" style="whiteSpace=wrap;html=1;" parent="-xYoTEpzR54N449aDbvq-17" vertex="1">
          <mxGeometry y="60" width="200" height="31" as="geometry" />
        </mxCell>
        <mxCell id="-xYoTEpzR54N449aDbvq-19" value="课程管理系统" style="whiteSpace=wrap;html=1;" parent="-xYoTEpzR54N449aDbvq-17" vertex="1">
          <mxGeometry y="29" width="200" height="31" as="geometry" />
        </mxCell>
        <mxCell id="-xYoTEpzR54N449aDbvq-20" value="标签系统" style="whiteSpace=wrap;html=1;" parent="-xYoTEpzR54N449aDbvq-17" vertex="1">
          <mxGeometry y="91" width="200" height="31" as="geometry" />
        </mxCell>
        <mxCell id="-xYoTEpzR54N449aDbvq-21" value="热门系统" style="whiteSpace=wrap;html=1;" parent="-xYoTEpzR54N449aDbvq-17" vertex="1">
          <mxGeometry y="122" width="200" height="31" as="geometry" />
        </mxCell>
        <mxCell id="-xYoTEpzR54N449aDbvq-24" value="评价系统" style="whiteSpace=wrap;html=1;" parent="-xYoTEpzR54N449aDbvq-17" vertex="1">
          <mxGeometry y="153" width="200" height="31" as="geometry" />
        </mxCell>
        <mxCell id="-xYoTEpzR54N449aDbvq-32" value="学生管理系统" style="whiteSpace=wrap;html=1;" parent="-xYoTEpzR54N449aDbvq-17" vertex="1">
          <mxGeometry y="183.5" width="200" height="31" as="geometry" />
        </mxCell>
        <mxCell id="-xYoTEpzR54N449aDbvq-94" style="edgeStyle=orthogonalEdgeStyle;rounded=0;orthogonalLoop=1;jettySize=auto;html=1;" parent="1" source="-xYoTEpzR54N449aDbvq-26" target="-xYoTEpzR54N449aDbvq-83" edge="1">
          <mxGeometry relative="1" as="geometry" />
        </mxCell>
        <mxCell id="-xYoTEpzR54N449aDbvq-26" value="学习模块" style="swimlane;whiteSpace=wrap;html=1;startSize=30;" parent="1" vertex="1">
          <mxGeometry x="520" y="400.5" width="200" height="121" as="geometry" />
        </mxCell>
        <mxCell id="-xYoTEpzR54N449aDbvq-27" value="笔记系统" style="whiteSpace=wrap;html=1;" parent="-xYoTEpzR54N449aDbvq-26" vertex="1">
          <mxGeometry y="60" width="200" height="31" as="geometry" />
        </mxCell>
        <mxCell id="-xYoTEpzR54N449aDbvq-28" value="进度管理系统" style="whiteSpace=wrap;html=1;" parent="-xYoTEpzR54N449aDbvq-26" vertex="1">
          <mxGeometry y="29" width="200" height="31" as="geometry" />
        </mxCell>
        <mxCell id="-xYoTEpzR54N449aDbvq-29" value="测试与评判系统" style="whiteSpace=wrap;html=1;" parent="-xYoTEpzR54N449aDbvq-26" vertex="1">
          <mxGeometry y="91" width="200" height="31" as="geometry" />
        </mxCell>
        <mxCell id="-xYoTEpzR54N449aDbvq-90" style="edgeStyle=orthogonalEdgeStyle;rounded=0;orthogonalLoop=1;jettySize=auto;html=1;" parent="1" source="-xYoTEpzR54N449aDbvq-36" target="-xYoTEpzR54N449aDbvq-68" edge="1">
          <mxGeometry relative="1" as="geometry" />
        </mxCell>
        <mxCell id="-xYoTEpzR54N449aDbvq-36" value="支付模块" style="swimlane;whiteSpace=wrap;html=1;startSize=30;" parent="1" vertex="1">
          <mxGeometry x="-200" y="400.5" width="200" height="121" as="geometry" />
        </mxCell>
        <mxCell id="-xYoTEpzR54N449aDbvq-37" value="退款系统" style="whiteSpace=wrap;html=1;" parent="-xYoTEpzR54N449aDbvq-36" vertex="1">
          <mxGeometry y="60" width="200" height="31" as="geometry" />
        </mxCell>
        <mxCell id="-xYoTEpzR54N449aDbvq-38" value="订单管理系统" style="whiteSpace=wrap;html=1;" parent="-xYoTEpzR54N449aDbvq-36" vertex="1">
          <mxGeometry y="29" width="200" height="31" as="geometry" />
        </mxCell>
        <mxCell id="-xYoTEpzR54N449aDbvq-39" value="第三方支付系统" style="whiteSpace=wrap;html=1;" parent="-xYoTEpzR54N449aDbvq-36" vertex="1">
          <mxGeometry y="91" width="200" height="31" as="geometry" />
        </mxCell>
        <mxCell id="-xYoTEpzR54N449aDbvq-89" style="edgeStyle=orthogonalEdgeStyle;rounded=0;orthogonalLoop=1;jettySize=auto;html=1;" parent="1" source="-xYoTEpzR54N449aDbvq-40" target="-xYoTEpzR54N449aDbvq-64" edge="1">
          <mxGeometry relative="1" as="geometry" />
        </mxCell>
        <mxCell id="-xYoTEpzR54N449aDbvq-40" value="社交模块" style="swimlane;whiteSpace=wrap;html=1;startSize=30;" parent="1" vertex="1">
          <mxGeometry x="-440" y="400.5" width="200" height="89.5" as="geometry" />
        </mxCell>
        <mxCell id="-xYoTEpzR54N449aDbvq-41" value="实时消息系统" style="whiteSpace=wrap;html=1;" parent="-xYoTEpzR54N449aDbvq-40" vertex="1">
          <mxGeometry y="60" width="200" height="31" as="geometry" />
        </mxCell>
        <mxCell id="-xYoTEpzR54N449aDbvq-42" value="社区讨论系统" style="whiteSpace=wrap;html=1;" parent="-xYoTEpzR54N449aDbvq-40" vertex="1">
          <mxGeometry y="29" width="200" height="31" as="geometry" />
        </mxCell>
        <mxCell id="-xYoTEpzR54N449aDbvq-88" style="edgeStyle=orthogonalEdgeStyle;rounded=0;orthogonalLoop=1;jettySize=auto;html=1;" parent="1" source="-xYoTEpzR54N449aDbvq-44" target="-xYoTEpzR54N449aDbvq-59" edge="1">
          <mxGeometry relative="1" as="geometry" />
        </mxCell>
        <mxCell id="-xYoTEpzR54N449aDbvq-44" value="后台管理模块" style="swimlane;whiteSpace=wrap;html=1;startSize=30;" parent="1" vertex="1">
          <mxGeometry x="-680" y="400.5" width="200" height="89.5" as="geometry" />
        </mxCell>
        <mxCell id="-xYoTEpzR54N449aDbvq-45" value="统计报表导出系统" style="whiteSpace=wrap;html=1;" parent="-xYoTEpzR54N449aDbvq-44" vertex="1">
          <mxGeometry y="60" width="200" height="31" as="geometry" />
        </mxCell>
        <mxCell id="-xYoTEpzR54N449aDbvq-46" value="可视化看板系统" style="whiteSpace=wrap;html=1;" parent="-xYoTEpzR54N449aDbvq-44" vertex="1">
          <mxGeometry y="29" width="200" height="31" as="geometry" />
        </mxCell>
        <mxCell id="-xYoTEpzR54N449aDbvq-97" style="edgeStyle=orthogonalEdgeStyle;rounded=0;orthogonalLoop=1;jettySize=auto;html=1;" parent="1" source="-xYoTEpzR54N449aDbvq-59" target="-xYoTEpzR54N449aDbvq-95" edge="1">
          <mxGeometry relative="1" as="geometry" />
        </mxCell>
        <mxCell id="-xYoTEpzR54N449aDbvq-59" value="实体列表" style="swimlane;fontStyle=0;childLayout=stackLayout;horizontal=1;startSize=30;horizontalStack=0;resizeParent=1;resizeParentMax=0;resizeLast=0;collapsible=1;marginBottom=0;whiteSpace=wrap;html=1;" parent="1" vertex="1">
          <mxGeometry x="-680" y="720" width="200" height="60" as="geometry" />
        </mxCell>
        <mxCell id="-xYoTEpzR54N449aDbvq-60" value="管理员用户" style="text;strokeColor=none;fillColor=none;align=left;verticalAlign=middle;spacingLeft=4;spacingRight=4;overflow=hidden;points=[[0,0.5],[1,0.5]];portConstraint=eastwest;rotatable=0;whiteSpace=wrap;html=1;" parent="-xYoTEpzR54N449aDbvq-59" vertex="1">
          <mxGeometry y="30" width="200" height="30" as="geometry" />
        </mxCell>
        <mxCell id="-xYoTEpzR54N449aDbvq-102" style="edgeStyle=orthogonalEdgeStyle;rounded=0;orthogonalLoop=1;jettySize=auto;html=1;" parent="1" source="-xYoTEpzR54N449aDbvq-64" target="-xYoTEpzR54N449aDbvq-99" edge="1">
          <mxGeometry relative="1" as="geometry" />
        </mxCell>
        <mxCell id="-xYoTEpzR54N449aDbvq-64" value="实体列表" style="swimlane;fontStyle=0;childLayout=stackLayout;horizontal=1;startSize=30;horizontalStack=0;resizeParent=1;resizeParentMax=0;resizeLast=0;collapsible=1;marginBottom=0;whiteSpace=wrap;html=1;" parent="1" vertex="1">
          <mxGeometry x="-440" y="720" width="200" height="120" as="geometry" />
        </mxCell>
        <mxCell id="-xYoTEpzR54N449aDbvq-65" value="学生用户" style="text;strokeColor=none;fillColor=none;align=left;verticalAlign=middle;spacingLeft=4;spacingRight=4;overflow=hidden;points=[[0,0.5],[1,0.5]];portConstraint=eastwest;rotatable=0;whiteSpace=wrap;html=1;" parent="-xYoTEpzR54N449aDbvq-64" vertex="1">
          <mxGeometry y="30" width="200" height="30" as="geometry" />
        </mxCell>
        <mxCell id="-xYoTEpzR54N449aDbvq-66" value="消息" style="text;strokeColor=none;fillColor=none;align=left;verticalAlign=middle;spacingLeft=4;spacingRight=4;overflow=hidden;points=[[0,0.5],[1,0.5]];portConstraint=eastwest;rotatable=0;whiteSpace=wrap;html=1;" parent="-xYoTEpzR54N449aDbvq-64" vertex="1">
          <mxGeometry y="60" width="200" height="30" as="geometry" />
        </mxCell>
        <mxCell id="-xYoTEpzR54N449aDbvq-67" value="讨论" style="text;strokeColor=none;fillColor=none;align=left;verticalAlign=middle;spacingLeft=4;spacingRight=4;overflow=hidden;points=[[0,0.5],[1,0.5]];portConstraint=eastwest;rotatable=0;whiteSpace=wrap;html=1;" parent="-xYoTEpzR54N449aDbvq-64" vertex="1">
          <mxGeometry y="90" width="200" height="30" as="geometry" />
        </mxCell>
        <mxCell id="-xYoTEpzR54N449aDbvq-106" style="edgeStyle=orthogonalEdgeStyle;rounded=0;orthogonalLoop=1;jettySize=auto;html=1;" parent="1" source="-xYoTEpzR54N449aDbvq-68" target="-xYoTEpzR54N449aDbvq-103" edge="1">
          <mxGeometry relative="1" as="geometry" />
        </mxCell>
        <mxCell id="-xYoTEpzR54N449aDbvq-68" value="实体列表" style="swimlane;fontStyle=0;childLayout=stackLayout;horizontal=1;startSize=30;horizontalStack=0;resizeParent=1;resizeParentMax=0;resizeLast=0;collapsible=1;marginBottom=0;whiteSpace=wrap;html=1;" parent="1" vertex="1">
          <mxGeometry x="-200" y="720" width="200" height="120" as="geometry" />
        </mxCell>
        <mxCell id="-xYoTEpzR54N449aDbvq-69" value="订单" style="text;strokeColor=none;fillColor=none;align=left;verticalAlign=middle;spacingLeft=4;spacingRight=4;overflow=hidden;points=[[0,0.5],[1,0.5]];portConstraint=eastwest;rotatable=0;whiteSpace=wrap;html=1;" parent="-xYoTEpzR54N449aDbvq-68" vertex="1">
          <mxGeometry y="30" width="200" height="30" as="geometry" />
        </mxCell>
        <mxCell id="-xYoTEpzR54N449aDbvq-144" value="学生用户" style="text;strokeColor=none;fillColor=none;align=left;verticalAlign=middle;spacingLeft=4;spacingRight=4;overflow=hidden;points=[[0,0.5],[1,0.5]];portConstraint=eastwest;rotatable=0;whiteSpace=wrap;html=1;" parent="-xYoTEpzR54N449aDbvq-68" vertex="1">
          <mxGeometry y="60" width="200" height="30" as="geometry" />
        </mxCell>
        <mxCell id="-xYoTEpzR54N449aDbvq-145" value="课程" style="text;strokeColor=none;fillColor=none;align=left;verticalAlign=middle;spacingLeft=4;spacingRight=4;overflow=hidden;points=[[0,0.5],[1,0.5]];portConstraint=eastwest;rotatable=0;whiteSpace=wrap;html=1;" parent="-xYoTEpzR54N449aDbvq-68" vertex="1">
          <mxGeometry y="90" width="200" height="30" as="geometry" />
        </mxCell>
        <mxCell id="-xYoTEpzR54N449aDbvq-109" style="edgeStyle=orthogonalEdgeStyle;rounded=0;orthogonalLoop=1;jettySize=auto;html=1;" parent="1" source="-xYoTEpzR54N449aDbvq-72" target="-xYoTEpzR54N449aDbvq-107" edge="1">
          <mxGeometry relative="1" as="geometry" />
        </mxCell>
        <mxCell id="-xYoTEpzR54N449aDbvq-72" value="实体列表" style="swimlane;fontStyle=0;childLayout=stackLayout;horizontal=1;startSize=30;horizontalStack=0;resizeParent=1;resizeParentMax=0;resizeLast=0;collapsible=1;marginBottom=0;whiteSpace=wrap;html=1;" parent="1" vertex="1">
          <mxGeometry x="40" y="720" width="200" height="90" as="geometry" />
        </mxCell>
        <mxCell id="-xYoTEpzR54N449aDbvq-73" value="用户" style="text;strokeColor=none;fillColor=none;align=left;verticalAlign=middle;spacingLeft=4;spacingRight=4;overflow=hidden;points=[[0,0.5],[1,0.5]];portConstraint=eastwest;rotatable=0;whiteSpace=wrap;html=1;" parent="-xYoTEpzR54N449aDbvq-72" vertex="1">
          <mxGeometry y="30" width="200" height="30" as="geometry" />
        </mxCell>
        <mxCell id="-xYoTEpzR54N449aDbvq-77" value="权限" style="text;strokeColor=none;fillColor=none;align=left;verticalAlign=middle;spacingLeft=4;spacingRight=4;overflow=hidden;points=[[0,0.5],[1,0.5]];portConstraint=eastwest;rotatable=0;whiteSpace=wrap;html=1;" parent="-xYoTEpzR54N449aDbvq-72" vertex="1">
          <mxGeometry y="60" width="200" height="30" as="geometry" />
        </mxCell>
        <mxCell id="-xYoTEpzR54N449aDbvq-112" style="edgeStyle=orthogonalEdgeStyle;rounded=0;orthogonalLoop=1;jettySize=auto;html=1;" parent="1" source="-xYoTEpzR54N449aDbvq-78" target="-xYoTEpzR54N449aDbvq-110" edge="1">
          <mxGeometry relative="1" as="geometry" />
        </mxCell>
        <mxCell id="-xYoTEpzR54N449aDbvq-78" value="实体列表" style="swimlane;fontStyle=0;childLayout=stackLayout;horizontal=1;startSize=30;horizontalStack=0;resizeParent=1;resizeParentMax=0;resizeLast=0;collapsible=1;marginBottom=0;whiteSpace=wrap;html=1;" parent="1" vertex="1">
          <mxGeometry x="280" y="720" width="200" height="150" as="geometry" />
        </mxCell>
        <mxCell id="-xYoTEpzR54N449aDbvq-79" value="课程" style="text;strokeColor=none;fillColor=none;align=left;verticalAlign=middle;spacingLeft=4;spacingRight=4;overflow=hidden;points=[[0,0.5],[1,0.5]];portConstraint=eastwest;rotatable=0;whiteSpace=wrap;html=1;" parent="-xYoTEpzR54N449aDbvq-78" vertex="1">
          <mxGeometry y="30" width="200" height="30" as="geometry" />
        </mxCell>
        <mxCell id="-xYoTEpzR54N449aDbvq-80" value="附件" style="text;strokeColor=none;fillColor=none;align=left;verticalAlign=middle;spacingLeft=4;spacingRight=4;overflow=hidden;points=[[0,0.5],[1,0.5]];portConstraint=eastwest;rotatable=0;whiteSpace=wrap;html=1;" parent="-xYoTEpzR54N449aDbvq-78" vertex="1">
          <mxGeometry y="60" width="200" height="30" as="geometry" />
        </mxCell>
        <mxCell id="-xYoTEpzR54N449aDbvq-81" value="标签" style="text;strokeColor=none;fillColor=none;align=left;verticalAlign=middle;spacingLeft=4;spacingRight=4;overflow=hidden;points=[[0,0.5],[1,0.5]];portConstraint=eastwest;rotatable=0;whiteSpace=wrap;html=1;" parent="-xYoTEpzR54N449aDbvq-78" vertex="1">
          <mxGeometry y="90" width="200" height="30" as="geometry" />
        </mxCell>
        <mxCell id="-xYoTEpzR54N449aDbvq-82" value="评价" style="text;strokeColor=none;fillColor=none;align=left;verticalAlign=middle;spacingLeft=4;spacingRight=4;overflow=hidden;points=[[0,0.5],[1,0.5]];portConstraint=eastwest;rotatable=0;whiteSpace=wrap;html=1;" parent="-xYoTEpzR54N449aDbvq-78" vertex="1">
          <mxGeometry y="120" width="200" height="30" as="geometry" />
        </mxCell>
        <mxCell id="-xYoTEpzR54N449aDbvq-121" style="edgeStyle=orthogonalEdgeStyle;rounded=0;orthogonalLoop=1;jettySize=auto;html=1;" parent="1" source="-xYoTEpzR54N449aDbvq-83" target="-xYoTEpzR54N449aDbvq-116" edge="1">
          <mxGeometry relative="1" as="geometry" />
        </mxCell>
        <mxCell id="-xYoTEpzR54N449aDbvq-83" value="实体列表" style="swimlane;fontStyle=0;childLayout=stackLayout;horizontal=1;startSize=30;horizontalStack=0;resizeParent=1;resizeParentMax=0;resizeLast=0;collapsible=1;marginBottom=0;whiteSpace=wrap;html=1;" parent="1" vertex="1">
          <mxGeometry x="520" y="720" width="200" height="120" as="geometry" />
        </mxCell>
        <mxCell id="-xYoTEpzR54N449aDbvq-84" value="进度" style="text;strokeColor=none;fillColor=none;align=left;verticalAlign=middle;spacingLeft=4;spacingRight=4;overflow=hidden;points=[[0,0.5],[1,0.5]];portConstraint=eastwest;rotatable=0;whiteSpace=wrap;html=1;" parent="-xYoTEpzR54N449aDbvq-83" vertex="1">
          <mxGeometry y="30" width="200" height="30" as="geometry" />
        </mxCell>
        <mxCell id="-xYoTEpzR54N449aDbvq-85" value="笔记" style="text;strokeColor=none;fillColor=none;align=left;verticalAlign=middle;spacingLeft=4;spacingRight=4;overflow=hidden;points=[[0,0.5],[1,0.5]];portConstraint=eastwest;rotatable=0;whiteSpace=wrap;html=1;" parent="-xYoTEpzR54N449aDbvq-83" vertex="1">
          <mxGeometry y="60" width="200" height="30" as="geometry" />
        </mxCell>
        <mxCell id="-xYoTEpzR54N449aDbvq-86" value="测试" style="text;strokeColor=none;fillColor=none;align=left;verticalAlign=middle;spacingLeft=4;spacingRight=4;overflow=hidden;points=[[0,0.5],[1,0.5]];portConstraint=eastwest;rotatable=0;whiteSpace=wrap;html=1;" parent="-xYoTEpzR54N449aDbvq-83" vertex="1">
          <mxGeometry y="90" width="200" height="30" as="geometry" />
        </mxCell>
        <mxCell id="-xYoTEpzR54N449aDbvq-95" value="流程列表" style="swimlane;fontStyle=0;childLayout=stackLayout;horizontal=1;startSize=30;horizontalStack=0;resizeParent=1;resizeParentMax=0;resizeLast=0;collapsible=1;marginBottom=0;whiteSpace=wrap;html=1;" parent="1" vertex="1">
          <mxGeometry x="-680" y="920" width="200" height="90" as="geometry" />
        </mxCell>
        <mxCell id="-xYoTEpzR54N449aDbvq-96" value="查看可视化信息" style="text;strokeColor=none;fillColor=none;align=left;verticalAlign=middle;spacingLeft=4;spacingRight=4;overflow=hidden;points=[[0,0.5],[1,0.5]];portConstraint=eastwest;rotatable=0;whiteSpace=wrap;html=1;" parent="-xYoTEpzR54N449aDbvq-95" vertex="1">
          <mxGeometry y="30" width="200" height="30" as="geometry" />
        </mxCell>
        <mxCell id="-xYoTEpzR54N449aDbvq-98" value="导出可视化信息" style="text;strokeColor=none;fillColor=none;align=left;verticalAlign=middle;spacingLeft=4;spacingRight=4;overflow=hidden;points=[[0,0.5],[1,0.5]];portConstraint=eastwest;rotatable=0;whiteSpace=wrap;html=1;" parent="-xYoTEpzR54N449aDbvq-95" vertex="1">
          <mxGeometry y="60" width="200" height="30" as="geometry" />
        </mxCell>
        <mxCell id="-xYoTEpzR54N449aDbvq-99" value="流程列表" style="swimlane;fontStyle=0;childLayout=stackLayout;horizontal=1;startSize=30;horizontalStack=0;resizeParent=1;resizeParentMax=0;resizeLast=0;collapsible=1;marginBottom=0;whiteSpace=wrap;html=1;" parent="1" vertex="1">
          <mxGeometry x="-440" y="920" width="200" height="90" as="geometry" />
        </mxCell>
        <mxCell id="-xYoTEpzR54N449aDbvq-100" value="参与讨论" style="text;strokeColor=none;fillColor=none;align=left;verticalAlign=middle;spacingLeft=4;spacingRight=4;overflow=hidden;points=[[0,0.5],[1,0.5]];portConstraint=eastwest;rotatable=0;whiteSpace=wrap;html=1;" parent="-xYoTEpzR54N449aDbvq-99" vertex="1">
          <mxGeometry y="30" width="200" height="30" as="geometry" />
        </mxCell>
        <mxCell id="-xYoTEpzR54N449aDbvq-101" value="消息交流" style="text;strokeColor=none;fillColor=none;align=left;verticalAlign=middle;spacingLeft=4;spacingRight=4;overflow=hidden;points=[[0,0.5],[1,0.5]];portConstraint=eastwest;rotatable=0;whiteSpace=wrap;html=1;" parent="-xYoTEpzR54N449aDbvq-99" vertex="1">
          <mxGeometry y="60" width="200" height="30" as="geometry" />
        </mxCell>
        <mxCell id="-xYoTEpzR54N449aDbvq-103" value="流程列表" style="swimlane;fontStyle=0;childLayout=stackLayout;horizontal=1;startSize=30;horizontalStack=0;resizeParent=1;resizeParentMax=0;resizeLast=0;collapsible=1;marginBottom=0;whiteSpace=wrap;html=1;" parent="1" vertex="1">
          <mxGeometry x="-200" y="920" width="200" height="60" as="geometry" />
        </mxCell>
        <mxCell id="-xYoTEpzR54N449aDbvq-104" value="订单生成与支付" style="text;strokeColor=none;fillColor=none;align=left;verticalAlign=middle;spacingLeft=4;spacingRight=4;overflow=hidden;points=[[0,0.5],[1,0.5]];portConstraint=eastwest;rotatable=0;whiteSpace=wrap;html=1;" parent="-xYoTEpzR54N449aDbvq-103" vertex="1">
          <mxGeometry y="30" width="200" height="30" as="geometry" />
        </mxCell>
        <mxCell id="-xYoTEpzR54N449aDbvq-107" value="流程列表" style="swimlane;fontStyle=0;childLayout=stackLayout;horizontal=1;startSize=30;horizontalStack=0;resizeParent=1;resizeParentMax=0;resizeLast=0;collapsible=1;marginBottom=0;whiteSpace=wrap;html=1;" parent="1" vertex="1">
          <mxGeometry x="40" y="920" width="200" height="60" as="geometry" />
        </mxCell>
        <mxCell id="-xYoTEpzR54N449aDbvq-108" value="用户认证" style="text;strokeColor=none;fillColor=none;align=left;verticalAlign=middle;spacingLeft=4;spacingRight=4;overflow=hidden;points=[[0,0.5],[1,0.5]];portConstraint=eastwest;rotatable=0;whiteSpace=wrap;html=1;" parent="-xYoTEpzR54N449aDbvq-107" vertex="1">
          <mxGeometry y="30" width="200" height="30" as="geometry" />
        </mxCell>
        <mxCell id="-xYoTEpzR54N449aDbvq-110" value="流程列表" style="swimlane;fontStyle=0;childLayout=stackLayout;horizontal=1;startSize=30;horizontalStack=0;resizeParent=1;resizeParentMax=0;resizeLast=0;collapsible=1;marginBottom=0;whiteSpace=wrap;html=1;" parent="1" vertex="1">
          <mxGeometry x="280" y="920" width="200" height="60" as="geometry" />
        </mxCell>
        <mxCell id="-xYoTEpzR54N449aDbvq-111" value="课程管理" style="text;strokeColor=none;fillColor=none;align=left;verticalAlign=middle;spacingLeft=4;spacingRight=4;overflow=hidden;points=[[0,0.5],[1,0.5]];portConstraint=eastwest;rotatable=0;whiteSpace=wrap;html=1;" parent="-xYoTEpzR54N449aDbvq-110" vertex="1">
          <mxGeometry y="30" width="200" height="30" as="geometry" />
        </mxCell>
        <mxCell id="-xYoTEpzR54N449aDbvq-116" value="流程列表" style="swimlane;fontStyle=0;childLayout=stackLayout;horizontal=1;startSize=30;horizontalStack=0;resizeParent=1;resizeParentMax=0;resizeLast=0;collapsible=1;marginBottom=0;whiteSpace=wrap;html=1;" parent="1" vertex="1">
          <mxGeometry x="520" y="920" width="200" height="120" as="geometry" />
        </mxCell>
        <mxCell id="-xYoTEpzR54N449aDbvq-117" value="进度管理" style="text;strokeColor=none;fillColor=none;align=left;verticalAlign=middle;spacingLeft=4;spacingRight=4;overflow=hidden;points=[[0,0.5],[1,0.5]];portConstraint=eastwest;rotatable=0;whiteSpace=wrap;html=1;" parent="-xYoTEpzR54N449aDbvq-116" vertex="1">
          <mxGeometry y="30" width="200" height="30" as="geometry" />
        </mxCell>
        <mxCell id="-xYoTEpzR54N449aDbvq-118" value="笔记管理" style="text;strokeColor=none;fillColor=none;align=left;verticalAlign=middle;spacingLeft=4;spacingRight=4;overflow=hidden;points=[[0,0.5],[1,0.5]];portConstraint=eastwest;rotatable=0;whiteSpace=wrap;html=1;" parent="-xYoTEpzR54N449aDbvq-116" vertex="1">
          <mxGeometry y="60" width="200" height="30" as="geometry" />
        </mxCell>
        <mxCell id="-xYoTEpzR54N449aDbvq-119" value="测试管理" style="text;strokeColor=none;fillColor=none;align=left;verticalAlign=middle;spacingLeft=4;spacingRight=4;overflow=hidden;points=[[0,0.5],[1,0.5]];portConstraint=eastwest;rotatable=0;whiteSpace=wrap;html=1;" parent="-xYoTEpzR54N449aDbvq-116" vertex="1">
          <mxGeometry y="90" width="200" height="30" as="geometry" />
        </mxCell>
        <mxCell id="-xYoTEpzR54N449aDbvq-123" value="导出可视化信息" style="swimlane;html=1;fontStyle=0;childLayout=stackLayout;horizontal=1;startSize=26;fillColor=#e0e0e0;horizontalStack=0;resizeParent=1;resizeLast=0;collapsible=1;marginBottom=0;swimlaneFillColor=#ffffff;align=center;rounded=1;shadow=0;comic=0;labelBackgroundColor=none;strokeWidth=1;fontFamily=Verdana;fontSize=12" parent="1" vertex="1">
          <mxGeometry x="1670" y="681.5" width="160" height="120" as="geometry" />
        </mxCell>
        <mxCell id="-xYoTEpzR54N449aDbvq-124" value="获取信息" style="text;html=1;strokeColor=none;fillColor=none;spacingLeft=4;spacingRight=4;whiteSpace=wrap;overflow=hidden;rotatable=0;points=[[0,0.5],[1,0.5]];portConstraint=eastwest;" parent="-xYoTEpzR54N449aDbvq-123" vertex="1">
          <mxGeometry y="26" width="160" height="24" as="geometry" />
        </mxCell>
        <mxCell id="-xYoTEpzR54N449aDbvq-127" value="导出信息" style="text;html=1;strokeColor=none;fillColor=none;spacingLeft=4;spacingRight=4;whiteSpace=wrap;overflow=hidden;rotatable=0;points=[[0,0.5],[1,0.5]];portConstraint=eastwest;" parent="-xYoTEpzR54N449aDbvq-123" vertex="1">
          <mxGeometry y="50" width="160" height="24" as="geometry" />
        </mxCell>
        <mxCell id="-xYoTEpzR54N449aDbvq-143" style="edgeStyle=orthogonalEdgeStyle;rounded=0;orthogonalLoop=1;jettySize=auto;html=1;" parent="1" source="-xYoTEpzR54N449aDbvq-129" target="-xYoTEpzR54N449aDbvq-142" edge="1">
          <mxGeometry relative="1" as="geometry">
            <Array as="points">
              <mxPoint x="2120" y="151" />
            </Array>
          </mxGeometry>
        </mxCell>
        <mxCell id="-xYoTEpzR54N449aDbvq-129" value="参与讨论" style="swimlane;html=1;fontStyle=0;childLayout=stackLayout;horizontal=1;startSize=26;fillColor=#e0e0e0;horizontalStack=0;resizeParent=1;resizeLast=0;collapsible=1;marginBottom=0;swimlaneFillColor=#ffffff;align=center;rounded=1;shadow=0;comic=0;labelBackgroundColor=none;strokeWidth=1;fontFamily=Verdana;fontSize=12" parent="1" vertex="1">
          <mxGeometry x="1780" y="90" width="160" height="122" as="geometry" />
        </mxCell>
        <mxCell id="-xYoTEpzR54N449aDbvq-130" value="获取讨论" style="text;html=1;strokeColor=none;fillColor=none;spacingLeft=4;spacingRight=4;whiteSpace=wrap;overflow=hidden;rotatable=0;points=[[0,0.5],[1,0.5]];portConstraint=eastwest;" parent="-xYoTEpzR54N449aDbvq-129" vertex="1">
          <mxGeometry y="26" width="160" height="24" as="geometry" />
        </mxCell>
        <mxCell id="-xYoTEpzR54N449aDbvq-131" value="新增讨论" style="text;html=1;strokeColor=none;fillColor=none;spacingLeft=4;spacingRight=4;whiteSpace=wrap;overflow=hidden;rotatable=0;points=[[0,0.5],[1,0.5]];portConstraint=eastwest;" parent="-xYoTEpzR54N449aDbvq-129" vertex="1">
          <mxGeometry y="50" width="160" height="24" as="geometry" />
        </mxCell>
        <mxCell id="-xYoTEpzR54N449aDbvq-139" value="删除讨论" style="text;html=1;strokeColor=none;fillColor=none;spacingLeft=4;spacingRight=4;whiteSpace=wrap;overflow=hidden;rotatable=0;points=[[0,0.5],[1,0.5]];portConstraint=eastwest;" parent="-xYoTEpzR54N449aDbvq-129" vertex="1">
          <mxGeometry y="74" width="160" height="24" as="geometry" />
        </mxCell>
        <mxCell id="-xYoTEpzR54N449aDbvq-132" value="新增回复讨论" style="text;html=1;strokeColor=none;fillColor=none;spacingLeft=4;spacingRight=4;whiteSpace=wrap;overflow=hidden;rotatable=0;points=[[0,0.5],[1,0.5]];portConstraint=eastwest;" parent="-xYoTEpzR54N449aDbvq-129" vertex="1">
          <mxGeometry y="98" width="160" height="24" as="geometry" />
        </mxCell>
        <mxCell id="-xYoTEpzR54N449aDbvq-141" style="edgeStyle=orthogonalEdgeStyle;rounded=0;orthogonalLoop=1;jettySize=auto;html=1;" parent="1" source="-xYoTEpzR54N449aDbvq-134" target="-xYoTEpzR54N449aDbvq-140" edge="1">
          <mxGeometry relative="1" as="geometry" />
        </mxCell>
        <mxCell id="-xYoTEpzR54N449aDbvq-134" value="消息交流" style="swimlane;html=1;fontStyle=0;childLayout=stackLayout;horizontal=1;startSize=26;fillColor=#e0e0e0;horizontalStack=0;resizeParent=1;resizeLast=0;collapsible=1;marginBottom=0;swimlaneFillColor=#ffffff;align=center;rounded=1;shadow=0;comic=0;labelBackgroundColor=none;strokeWidth=1;fontFamily=Verdana;fontSize=12" parent="1" vertex="1">
          <mxGeometry x="1780" y="-80" width="160" height="120" as="geometry" />
        </mxCell>
        <mxCell id="-xYoTEpzR54N449aDbvq-135" value="获取消息" style="text;html=1;strokeColor=none;fillColor=none;spacingLeft=4;spacingRight=4;whiteSpace=wrap;overflow=hidden;rotatable=0;points=[[0,0.5],[1,0.5]];portConstraint=eastwest;" parent="-xYoTEpzR54N449aDbvq-134" vertex="1">
          <mxGeometry y="26" width="160" height="24" as="geometry" />
        </mxCell>
        <mxCell id="-xYoTEpzR54N449aDbvq-136" value="新增消息" style="text;html=1;strokeColor=none;fillColor=none;spacingLeft=4;spacingRight=4;whiteSpace=wrap;overflow=hidden;rotatable=0;points=[[0,0.5],[1,0.5]];portConstraint=eastwest;" parent="-xYoTEpzR54N449aDbvq-134" vertex="1">
          <mxGeometry y="50" width="160" height="24" as="geometry" />
        </mxCell>
        <mxCell id="-xYoTEpzR54N449aDbvq-137" value="删除消息" style="text;html=1;strokeColor=none;fillColor=none;spacingLeft=4;spacingRight=4;whiteSpace=wrap;overflow=hidden;rotatable=0;points=[[0,0.5],[1,0.5]];portConstraint=eastwest;" parent="-xYoTEpzR54N449aDbvq-134" vertex="1">
          <mxGeometry y="74" width="160" height="24" as="geometry" />
        </mxCell>
        <mxCell id="-xYoTEpzR54N449aDbvq-140" value="消息" style="html=1;rounded=0;shadow=0;comic=0;labelBackgroundColor=none;strokeWidth=2;fontFamily=Verdana;fontSize=12;align=center;shape=mxgraph.ios7ui.horLines;" parent="1" vertex="1">
          <mxGeometry x="2045" y="-140" width="135" height="50" as="geometry" />
        </mxCell>
        <mxCell id="-xYoTEpzR54N449aDbvq-142" value="讨论" style="html=1;rounded=0;shadow=0;comic=0;labelBackgroundColor=none;strokeWidth=2;fontFamily=Verdana;fontSize=12;align=center;shape=mxgraph.ios7ui.horLines;" parent="1" vertex="1">
          <mxGeometry x="2045" y="50" width="135" height="50" as="geometry" />
        </mxCell>
        <mxCell id="-xYoTEpzR54N449aDbvq-159" style="edgeStyle=orthogonalEdgeStyle;rounded=0;orthogonalLoop=1;jettySize=auto;html=1;" parent="1" source="-xYoTEpzR54N449aDbvq-152" target="-xYoTEpzR54N449aDbvq-158" edge="1">
          <mxGeometry relative="1" as="geometry" />
        </mxCell>
        <mxCell id="-xYoTEpzR54N449aDbvq-152" value="订单生成与支付" style="swimlane;html=1;fontStyle=0;childLayout=stackLayout;horizontal=1;startSize=26;fillColor=#e0e0e0;horizontalStack=0;resizeParent=1;resizeLast=0;collapsible=1;marginBottom=0;swimlaneFillColor=#ffffff;align=center;rounded=1;shadow=0;comic=0;labelBackgroundColor=none;strokeWidth=1;fontFamily=Verdana;fontSize=12" parent="1" vertex="1">
          <mxGeometry x="2128" y="170" width="160" height="130" as="geometry" />
        </mxCell>
        <mxCell id="-xYoTEpzR54N449aDbvq-153" value="生成订单" style="text;html=1;strokeColor=none;fillColor=none;spacingLeft=4;spacingRight=4;whiteSpace=wrap;overflow=hidden;rotatable=0;points=[[0,0.5],[1,0.5]];portConstraint=eastwest;" parent="-xYoTEpzR54N449aDbvq-152" vertex="1">
          <mxGeometry y="26" width="160" height="26" as="geometry" />
        </mxCell>
        <mxCell id="-xYoTEpzR54N449aDbvq-154" value="支付订单" style="text;html=1;strokeColor=none;fillColor=none;spacingLeft=4;spacingRight=4;whiteSpace=wrap;overflow=hidden;rotatable=0;points=[[0,0.5],[1,0.5]];portConstraint=eastwest;" parent="-xYoTEpzR54N449aDbvq-152" vertex="1">
          <mxGeometry y="52" width="160" height="26" as="geometry" />
        </mxCell>
        <mxCell id="-xYoTEpzR54N449aDbvq-158" value="订单" style="html=1;rounded=0;shadow=0;comic=0;labelBackgroundColor=none;strokeWidth=2;fontFamily=Verdana;fontSize=12;align=center;shape=mxgraph.ios7ui.horLines;" parent="1" vertex="1">
          <mxGeometry x="2350" y="90" width="135" height="50" as="geometry" />
        </mxCell>
        <mxCell id="-xYoTEpzR54N449aDbvq-166" style="edgeStyle=orthogonalEdgeStyle;rounded=0;orthogonalLoop=1;jettySize=auto;html=1;" parent="1" source="-xYoTEpzR54N449aDbvq-160" target="-xYoTEpzR54N449aDbvq-161" edge="1">
          <mxGeometry relative="1" as="geometry" />
        </mxCell>
        <mxCell id="-xYoTEpzR54N449aDbvq-160" value="用户" style="rounded=0;whiteSpace=wrap;html=1;" parent="1" vertex="1">
          <mxGeometry x="900" y="405" width="120" height="60" as="geometry" />
        </mxCell>
        <mxCell id="-xYoTEpzR54N449aDbvq-168" style="edgeStyle=orthogonalEdgeStyle;rounded=0;orthogonalLoop=1;jettySize=auto;html=1;" parent="1" source="-xYoTEpzR54N449aDbvq-161" target="-xYoTEpzR54N449aDbvq-167" edge="1">
          <mxGeometry relative="1" as="geometry" />
        </mxCell>
        <mxCell id="-xYoTEpzR54N449aDbvq-161" value="用户认证" style="swimlane;html=1;fontStyle=0;childLayout=stackLayout;horizontal=1;startSize=26;fillColor=#e0e0e0;horizontalStack=0;resizeParent=1;resizeLast=0;collapsible=1;marginBottom=0;swimlaneFillColor=#ffffff;align=center;rounded=1;shadow=0;comic=0;labelBackgroundColor=none;strokeWidth=1;fontFamily=Verdana;fontSize=12" parent="1" vertex="1">
          <mxGeometry x="1090" y="370" width="160" height="130" as="geometry" />
        </mxCell>
        <mxCell id="-xYoTEpzR54N449aDbvq-162" value="注册" style="text;html=1;strokeColor=none;fillColor=none;spacingLeft=4;spacingRight=4;whiteSpace=wrap;overflow=hidden;rotatable=0;points=[[0,0.5],[1,0.5]];portConstraint=eastwest;" parent="-xYoTEpzR54N449aDbvq-161" vertex="1">
          <mxGeometry y="26" width="160" height="26" as="geometry" />
        </mxCell>
        <mxCell id="-xYoTEpzR54N449aDbvq-163" value="登录" style="text;html=1;strokeColor=none;fillColor=none;spacingLeft=4;spacingRight=4;whiteSpace=wrap;overflow=hidden;rotatable=0;points=[[0,0.5],[1,0.5]];portConstraint=eastwest;" parent="-xYoTEpzR54N449aDbvq-161" vertex="1">
          <mxGeometry y="52" width="160" height="26" as="geometry" />
        </mxCell>
        <mxCell id="-xYoTEpzR54N449aDbvq-164" value="绑定" style="text;html=1;strokeColor=none;fillColor=none;spacingLeft=4;spacingRight=4;whiteSpace=wrap;overflow=hidden;rotatable=0;points=[[0,0.5],[1,0.5]];portConstraint=eastwest;" parent="-xYoTEpzR54N449aDbvq-161" vertex="1">
          <mxGeometry y="78" width="160" height="26" as="geometry" />
        </mxCell>
        <mxCell id="-xYoTEpzR54N449aDbvq-165" value="身份认证" style="text;html=1;strokeColor=none;fillColor=none;spacingLeft=4;spacingRight=4;whiteSpace=wrap;overflow=hidden;rotatable=0;points=[[0,0.5],[1,0.5]];portConstraint=eastwest;" parent="-xYoTEpzR54N449aDbvq-161" vertex="1">
          <mxGeometry y="104" width="160" height="26" as="geometry" />
        </mxCell>
        <mxCell id="-xYoTEpzR54N449aDbvq-169" style="edgeStyle=orthogonalEdgeStyle;rounded=0;orthogonalLoop=1;jettySize=auto;html=1;" parent="1" source="-xYoTEpzR54N449aDbvq-167" target="rQ-bKCQHfkk-t5cyrlft-1" edge="1">
          <mxGeometry relative="1" as="geometry">
            <Array as="points">
              <mxPoint x="1377" y="324" />
            </Array>
          </mxGeometry>
        </mxCell>
        <mxCell id="-xYoTEpzR54N449aDbvq-170" style="edgeStyle=orthogonalEdgeStyle;rounded=0;orthogonalLoop=1;jettySize=auto;html=1;" parent="1" source="-xYoTEpzR54N449aDbvq-167" target="rQ-bKCQHfkk-t5cyrlft-4" edge="1">
          <mxGeometry relative="1" as="geometry" />
        </mxCell>
        <mxCell id="-xYoTEpzR54N449aDbvq-178" style="edgeStyle=orthogonalEdgeStyle;rounded=0;orthogonalLoop=1;jettySize=auto;html=1;" parent="1" source="-xYoTEpzR54N449aDbvq-167" target="rQ-bKCQHfkk-t5cyrlft-3" edge="1">
          <mxGeometry relative="1" as="geometry">
            <Array as="points">
              <mxPoint x="1378" y="582" />
            </Array>
          </mxGeometry>
        </mxCell>
        <mxCell id="-xYoTEpzR54N449aDbvq-167" value="用户" style="html=1;rounded=0;shadow=0;comic=0;labelBackgroundColor=none;strokeWidth=2;fontFamily=Verdana;fontSize=12;align=center;shape=mxgraph.ios7ui.horLines;" parent="1" vertex="1">
          <mxGeometry x="1310" y="410" width="135" height="50" as="geometry" />
        </mxCell>
        <mxCell id="-xYoTEpzR54N449aDbvq-187" style="edgeStyle=orthogonalEdgeStyle;rounded=0;orthogonalLoop=1;jettySize=auto;html=1;" parent="1" source="-xYoTEpzR54N449aDbvq-179" target="-xYoTEpzR54N449aDbvq-185" edge="1">
          <mxGeometry relative="1" as="geometry" />
        </mxCell>
        <mxCell id="-xYoTEpzR54N449aDbvq-179" value="学习管理" style="swimlane;html=1;fontStyle=0;childLayout=stackLayout;horizontal=1;startSize=26;fillColor=#e0e0e0;horizontalStack=0;resizeParent=1;resizeLast=0;collapsible=1;marginBottom=0;swimlaneFillColor=#ffffff;align=center;rounded=1;shadow=0;comic=0;labelBackgroundColor=none;strokeWidth=1;fontFamily=Verdana;fontSize=12" parent="1" vertex="1">
          <mxGeometry x="2030" y="450" width="160" height="130" as="geometry" />
        </mxCell>
        <mxCell id="-xYoTEpzR54N449aDbvq-180" value="进度管理" style="text;html=1;strokeColor=none;fillColor=none;spacingLeft=4;spacingRight=4;whiteSpace=wrap;overflow=hidden;rotatable=0;points=[[0,0.5],[1,0.5]];portConstraint=eastwest;" parent="-xYoTEpzR54N449aDbvq-179" vertex="1">
          <mxGeometry y="26" width="160" height="26" as="geometry" />
        </mxCell>
        <mxCell id="-xYoTEpzR54N449aDbvq-181" value="笔记管理" style="text;html=1;strokeColor=none;fillColor=none;spacingLeft=4;spacingRight=4;whiteSpace=wrap;overflow=hidden;rotatable=0;points=[[0,0.5],[1,0.5]];portConstraint=eastwest;" parent="-xYoTEpzR54N449aDbvq-179" vertex="1">
          <mxGeometry y="52" width="160" height="26" as="geometry" />
        </mxCell>
        <mxCell id="-xYoTEpzR54N449aDbvq-182" value="测试管理" style="text;html=1;strokeColor=none;fillColor=none;spacingLeft=4;spacingRight=4;whiteSpace=wrap;overflow=hidden;rotatable=0;points=[[0,0.5],[1,0.5]];portConstraint=eastwest;" parent="-xYoTEpzR54N449aDbvq-179" vertex="1">
          <mxGeometry y="78" width="160" height="26" as="geometry" />
        </mxCell>
        <mxCell id="-xYoTEpzR54N449aDbvq-186" style="edgeStyle=orthogonalEdgeStyle;rounded=0;orthogonalLoop=1;jettySize=auto;html=1;" parent="1" source="-xYoTEpzR54N449aDbvq-185" target="-xYoTEpzR54N449aDbvq-179" edge="1">
          <mxGeometry relative="1" as="geometry" />
        </mxCell>
        <mxCell id="-xYoTEpzR54N449aDbvq-185" value="学习信息" style="html=1;rounded=0;shadow=0;comic=0;labelBackgroundColor=none;strokeWidth=2;fontFamily=Verdana;fontSize=12;align=center;shape=mxgraph.ios7ui.horLines;" parent="1" vertex="1">
          <mxGeometry x="2260" y="490" width="135" height="50" as="geometry" />
        </mxCell>
        <mxCell id="-xYoTEpzR54N449aDbvq-188" value="学生" style="shape=umlActor;verticalLabelPosition=bottom;verticalAlign=top;html=1;outlineConnect=0;" parent="1" vertex="1">
          <mxGeometry x="1120" y="1120" width="30" height="60" as="geometry" />
        </mxCell>
        <mxCell id="H6b_ej12mZ5Q9JiaDGPX-2" value="" style="ellipse;whiteSpace=wrap;html=1;" parent="1" vertex="1">
          <mxGeometry x="1240" y="1080" width="80" height="30" as="geometry" />
        </mxCell>
        <mxCell id="H6b_ej12mZ5Q9JiaDGPX-3" value="&lt;font style=&quot;font-size: 10px;&quot;&gt;课程浏览与选择&lt;/font&gt;" style="text;html=1;align=center;verticalAlign=middle;whiteSpace=wrap;rounded=0;" parent="1" vertex="1">
          <mxGeometry x="1240" y="1110" width="80" height="20" as="geometry" />
        </mxCell>
        <mxCell id="H6b_ej12mZ5Q9JiaDGPX-7" value="" style="ellipse;whiteSpace=wrap;html=1;" parent="1" vertex="1">
          <mxGeometry x="1240" y="1140" width="80" height="30" as="geometry" />
        </mxCell>
        <mxCell id="H6b_ej12mZ5Q9JiaDGPX-8" value="&lt;font style=&quot;font-size: 10px;&quot;&gt;注册登录&lt;/font&gt;" style="text;html=1;align=center;verticalAlign=middle;whiteSpace=wrap;rounded=0;" parent="1" vertex="1">
          <mxGeometry x="1240" y="1170" width="80" height="20" as="geometry" />
        </mxCell>
        <mxCell id="H6b_ej12mZ5Q9JiaDGPX-9" value="" style="ellipse;whiteSpace=wrap;html=1;" parent="1" vertex="1">
          <mxGeometry x="1240" y="1200" width="80" height="30" as="geometry" />
        </mxCell>
        <mxCell id="H6b_ej12mZ5Q9JiaDGPX-10" value="&lt;font style=&quot;font-size: 10px;&quot;&gt;个人信息管理&lt;/font&gt;" style="text;html=1;align=center;verticalAlign=middle;whiteSpace=wrap;rounded=0;" parent="1" vertex="1">
          <mxGeometry x="1240" y="1230" width="80" height="20" as="geometry" />
        </mxCell>
      </root>
    </mxGraphModel>
  </diagram>
</mxfile>
